<svg width="847" height="846" viewBox="0 0 847 846" fill="none" xmlns="http://www.w3.org/2000/svg">
<circle cx="423.486" cy="422.755" r="219" fill="#272B30"/>
<path d="M628.194 633.778C599.645 661.472 565.774 683.086 528.63 697.31C491.486 711.535 451.842 718.075 412.098 716.534C372.353 714.993 333.335 705.404 297.403 688.347C261.472 671.289 229.376 647.118 203.057 617.297C176.738 587.476 156.743 552.624 144.284 514.851C131.824 477.079 127.159 437.171 130.57 397.543C133.981 357.915 145.397 319.391 164.127 284.303C182.858 249.216 208.514 218.293 239.541 193.408L240.587 194.711C209.736 219.455 184.226 250.202 165.602 285.091C146.978 319.979 135.626 358.284 132.235 397.686C128.843 437.089 133.483 476.77 145.871 514.328C158.26 551.886 178.141 586.539 204.31 616.191C230.479 645.843 262.393 669.876 298.12 686.837C333.847 703.797 372.644 713.332 412.163 714.864C451.681 716.396 491.1 709.893 528.032 695.75C564.965 681.606 598.644 660.115 627.03 632.578L628.194 633.778Z" fill="#373D44"/>
<path d="M707.143 283.605C728.595 327.258 739.681 375.273 739.536 423.912C739.392 472.551 728.022 520.5 706.312 564.024C684.602 607.549 653.137 645.475 614.369 674.847C575.601 704.22 530.575 724.247 482.8 733.369C435.024 742.49 385.787 740.46 338.924 727.436C292.062 714.413 248.838 690.747 212.619 658.282C176.401 625.818 148.165 585.43 130.112 540.266C112.058 495.102 104.674 446.38 108.535 397.894L109.734 397.99C105.888 446.291 113.244 494.827 131.229 539.82C149.213 584.812 177.341 625.046 213.422 657.387C249.503 689.728 292.562 713.303 339.246 726.278C385.931 739.252 434.98 741.274 482.574 732.187C530.168 723.101 575.022 703.15 613.643 673.889C652.263 644.628 683.608 606.846 705.236 563.487C726.863 520.128 738.19 472.362 738.334 423.909C738.477 375.455 727.434 327.622 706.064 284.136L707.143 283.605Z" fill="#28333E"/>
<circle cx="628.902" cy="632.292" r="2" transform="rotate(-69.8606 628.902 632.292)" fill="#00F0FF"/>
<circle cx="706.246" cy="284.046" r="2" transform="rotate(-26.1705 706.246 284.046)" fill="#00F0FF"/>
</svg>
